<svg version="1.1" xmlns="http://www.w3.org/2000/svg" viewBox="0 0 1094.1110578264525 338.60311889648483" width="1094.1110578264525" height="338.60311889648483">
  <!-- svg-source:excalidraw -->
  
  <defs>
    <style class="style-fonts">
      @font-face {
        font-family: "Virgil";
        src: url("https://excalidraw.com/Virgil.woff2");
      }
      @font-face {
        font-family: "Cascadia";
        src: url("https://excalidraw.com/Cascadia.woff2");
      }
      @font-face {
        font-family: "Assistant";
        src: url("https://excalidraw.com/Assistant-Regular.woff2");
      }
    </style>
    
  </defs>
  <rect x="0" y="0" width="1094.1110578264525" height="338.60311889648483" fill="#ffffff"></rect><g stroke-linecap="round" transform="translate(196.762028130026 85.2857796805256) rotate(0 51.42857142857156 30)"><path d="M15 0 C33.8 0, 52.6 0, 87.86 0 C97.86 0, 102.86 5, 102.86 15 C102.86 25.41, 102.86 35.82, 102.86 45 C102.86 55, 97.86 60, 87.86 60 C69.03 60, 50.19 60, 15 60 C5 60, 0 55, 0 45 C0 36.03, 0 27.06, 0 15 C0 5, 5 0, 15 0" stroke="none" stroke-width="0" fill="#fcc2d7"></path><path d="M15 0 C38.4 0, 61.8 0, 87.86 0 M15 0 C40.73 0, 66.47 0, 87.86 0 M87.86 0 C97.86 0, 102.86 5, 102.86 15 M87.86 0 C97.86 0, 102.86 5, 102.86 15 M102.86 15 C102.86 22.31, 102.86 29.62, 102.86 45 M102.86 15 C102.86 21.42, 102.86 27.83, 102.86 45 M102.86 45 C102.86 55, 97.86 60, 87.86 60 M102.86 45 C102.86 55, 97.86 60, 87.86 60 M87.86 60 C71.06 60, 54.27 60, 15 60 M87.86 60 C61.95 60, 36.04 60, 15 60 M15 60 C5 60, 0 55, 0 45 M15 60 C5 60, 0 55, 0 45 M0 45 C0 34.26, 0 23.52, 0 15 M0 45 C0 35.42, 0 25.84, 0 15 M0 15 C0 5, 5 0, 15 0 M0 15 C0 5, 5 0, 15 0" stroke="#1e1e1e" stroke-width="2" fill="none"></path></g><g transform="translate(206.51579487109848 103.7857796805256) rotate(0 41.6748046875 11.5)"><text x="41.6748046875" y="18.400390625" font-family="Helvetica, Segoe UI Emoji" font-size="20px" fill="#1e1e1e" text-anchor="middle" style="white-space: pre;" direction="ltr" dominant-baseline="alphabetic">wasm file</text></g><g stroke-linecap="round" transform="translate(491.90472541890085 193.60311889648483) rotate(0 115.23812430245562 67.5)"><path d="M32 0 C77.48 0, 122.97 0, 198.48 0 C219.81 0, 230.48 10.67, 230.48 32 C230.48 56.98, 230.48 81.96, 230.48 103 C230.48 124.33, 219.81 135, 198.48 135 C147.24 135, 96.01 135, 32 135 C10.67 135, 0 124.33, 0 103 C0 77.91, 0 52.83, 0 32 C0 10.67, 10.67 0, 32 0" stroke="none" stroke-width="0" fill="#a5d8ff"></path><path d="M32 0 C81.15 0, 130.3 0, 198.48 0 M32 0 C65.56 0, 99.13 0, 198.48 0 M198.48 0 C219.81 0, 230.48 10.67, 230.48 32 M198.48 0 C219.81 0, 230.48 10.67, 230.48 32 M230.48 32 C230.48 55.13, 230.48 78.27, 230.48 103 M230.48 32 C230.48 48.39, 230.48 64.79, 230.48 103 M230.48 103 C230.48 124.33, 219.81 135, 198.48 135 M230.48 103 C230.48 124.33, 219.81 135, 198.48 135 M198.48 135 C140.35 135, 82.22 135, 32 135 M198.48 135 C136.86 135, 75.25 135, 32 135 M32 135 C10.67 135, 0 124.33, 0 103 M32 135 C10.67 135, 0 124.33, 0 103 M0 103 C0 85.56, 0 68.11, 0 32 M0 103 C0 80.74, 0 58.48, 0 32 M0 32 C0 10.67, 10.67 0, 32 0 M0 32 C0 10.67, 10.67 0, 32 0" stroke="#1e1e1e" stroke-width="2" fill="none"></path></g><g transform="translate(510.44363097135647 203.60311889648483) rotate(0 96.69921875 57.5)"><text x="96.69921875" y="18.400390625" font-family="Helvetica, Segoe UI Emoji" font-size="20px" fill="#1e1e1e" text-anchor="middle" style="white-space: pre;" direction="ltr" dominant-baseline="alphabetic">auxiliary library</text><text x="96.69921875" y="41.400390625" font-family="Helvetica, Segoe UI Emoji" font-size="20px" fill="#1e1e1e" text-anchor="middle" style="white-space: pre;" direction="ltr" dominant-baseline="alphabetic"></text><text x="96.69921875" y="64.400390625" font-family="Helvetica, Segoe UI Emoji" font-size="20px" fill="#1e1e1e" text-anchor="middle" style="white-space: pre;" direction="ltr" dominant-baseline="alphabetic">(native API, memory </text><text x="96.69921875" y="87.400390625" font-family="Helvetica, Segoe UI Emoji" font-size="20px" fill="#1e1e1e" text-anchor="middle" style="white-space: pre;" direction="ltr" dominant-baseline="alphabetic"> allocator, lookup/call </text><text x="96.69921875" y="110.400390625" font-family="Helvetica, Segoe UI Emoji" font-size="20px" fill="#1e1e1e" text-anchor="middle" style="white-space: pre;" direction="ltr" dominant-baseline="alphabetic"> wasm functions, etc.)</text></g><g stroke-linecap="round" transform="translate(588.3333404440145 80.36508178710983) rotate(0 68.57147216796966 30)"><path d="M15 0 C38.54 0, 62.08 0, 122.14 0 C132.14 0, 137.14 5, 137.14 15 C137.14 25.6, 137.14 36.2, 137.14 45 C137.14 55, 132.14 60, 122.14 60 C88.26 60, 54.37 60, 15 60 C5 60, 0 55, 0 45 C0 34.21, 0 23.42, 0 15 C0 5, 5 0, 15 0" stroke="none" stroke-width="0" fill="#a5d8ff"></path><path d="M15 0 C52.76 0, 90.52 0, 122.14 0 M15 0 C46.33 0, 77.65 0, 122.14 0 M122.14 0 C132.14 0, 137.14 5, 137.14 15 M122.14 0 C132.14 0, 137.14 5, 137.14 15 M137.14 15 C137.14 21.75, 137.14 28.5, 137.14 45 M137.14 15 C137.14 25.4, 137.14 35.79, 137.14 45 M137.14 45 C137.14 55, 132.14 60, 122.14 60 M137.14 45 C137.14 55, 132.14 60, 122.14 60 M122.14 60 C96.04 60, 69.94 60, 15 60 M122.14 60 C80.61 60, 39.07 60, 15 60 M15 60 C5 60, 0 55, 0 45 M15 60 C5 60, 0 55, 0 45 M0 45 C0 34.24, 0 23.48, 0 15 M0 45 C0 34.55, 0 24.11, 0 15 M0 15 C0 5, 5 0, 15 0 M0 15 C0 5, 5 0, 15 0" stroke="#1e1e1e" stroke-width="2" fill="none"></path></g><g transform="translate(614.6587188619851 98.86508178710983) rotate(0 42.24609375 11.5)"><text x="42.24609375" y="18.400390625" font-family="Helvetica, Segoe UI Emoji" font-size="20px" fill="#1e1e1e" text-anchor="middle" style="white-space: pre;" direction="ltr" dominant-baseline="alphabetic">object file</text></g><g stroke-linecap="round"><g transform="translate(723.6943324548647 257.81098709367734) rotate(0 71.14274815150839 -44.32996926848455)"><path d="M0 0 C9.66 -4.27, 34.25 -10.86, 57.96 -25.64 C81.68 -40.42, 128.23 -78.16, 142.29 -88.66 M0 0 C9.66 -4.27, 34.25 -10.86, 57.96 -25.64 C81.68 -40.42, 128.23 -78.16, 142.29 -88.66" stroke="#1e1e1e" stroke-width="1" fill="none"></path></g><g transform="translate(723.6943324548647 257.81098709367734) rotate(0 71.14274815150839 -44.32996926848455)"><path d="M128.96 -67.51 C132.21 -72.66, 135.45 -77.81, 142.29 -88.66 M128.96 -67.51 C131.81 -72.03, 134.66 -76.55, 142.29 -88.66" stroke="#1e1e1e" stroke-width="1" fill="none"></path></g><g transform="translate(723.6943324548647 257.81098709367734) rotate(0 71.14274815150839 -44.32996926848455)"><path d="M118.48 -81.02 C124.28 -82.88, 130.08 -84.74, 142.29 -88.66 M118.48 -81.02 C123.57 -82.66, 128.66 -84.29, 142.29 -88.66" stroke="#1e1e1e" stroke-width="1" fill="none"></path></g></g><mask></mask><g stroke-linecap="round" transform="translate(871.0951944986973 108.7697710309717) rotate(0 106.50793166387757 54.5)"><path d="M27.25 0 C82.25 0, 137.25 0, 185.77 0 C203.93 0, 213.02 9.08, 213.02 27.25 C213.02 41.34, 213.02 55.42, 213.02 81.75 C213.02 99.92, 203.93 109, 185.77 109 C138.38 109, 91 109, 27.25 109 C9.08 109, 0 99.92, 0 81.75 C0 69.53, 0 57.32, 0 27.25 C0 9.08, 9.08 0, 27.25 0" stroke="none" stroke-width="0" fill="#38d9a9"></path><path d="M27.25 0 C73.6 0, 119.94 0, 185.77 0 M27.25 0 C84.88 0, 142.52 0, 185.77 0 M185.77 0 C203.93 0, 213.02 9.08, 213.02 27.25 M185.77 0 C203.93 0, 213.02 9.08, 213.02 27.25 M213.02 27.25 C213.02 46.14, 213.02 65.02, 213.02 81.75 M213.02 27.25 C213.02 47.34, 213.02 67.43, 213.02 81.75 M213.02 81.75 C213.02 99.92, 203.93 109, 185.77 109 M213.02 81.75 C213.02 99.92, 203.93 109, 185.77 109 M185.77 109 C124.31 109, 62.86 109, 27.25 109 M185.77 109 C148.67 109, 111.57 109, 27.25 109 M27.25 109 C9.08 109, 0 99.92, 0 81.75 M27.25 109 C9.08 109, 0 99.92, 0 81.75 M0 81.75 C0 62.77, 0 43.8, 0 27.25 M0 81.75 C0 68.88, 0 56, 0 27.25 M0 27.25 C0 9.08, 9.08 0, 27.25 0 M0 27.25 C0 9.08, 9.08 0, 27.25 0" stroke="#1e1e1e" stroke-width="2" fill="none"></path></g><g transform="translate(885.0005871000758 128.7697710309717) rotate(0 92.6025390625 34.5)"><text x="92.6025390625" y="18.400390625" font-family="Helvetica, Segoe UI Emoji" font-size="20px" fill="#1e1e1e" text-anchor="middle" style="white-space: pre;" direction="ltr" dominant-baseline="alphabetic">native binary</text><text x="92.6025390625" y="41.400390625" font-family="Helvetica, Segoe UI Emoji" font-size="20px" fill="#1e1e1e" text-anchor="middle" style="white-space: pre;" direction="ltr" dominant-baseline="alphabetic"></text><text x="92.6025390625" y="64.400390625" font-family="Helvetica, Segoe UI Emoji" font-size="20px" fill="#1e1e1e" text-anchor="middle" style="white-space: pre;" direction="ltr" dominant-baseline="alphabetic">(x86, arm, riscv, etc.)</text></g><g stroke-linecap="round"><g transform="translate(727.4445237475757 109.59085716638765) rotate(0 69.85712105887524 27.66342724048468)"><path d="M0 0 C9.39 1.14, 33.06 -2.38, 56.34 6.84 C79.63 16.06, 125.82 47.25, 139.71 55.33 M0 0 C9.39 1.14, 33.06 -2.38, 56.34 6.84 C79.63 16.06, 125.82 47.25, 139.71 55.33" stroke="#1e1e1e" stroke-width="1" fill="none"></path></g><g transform="translate(727.4445237475757 109.59085716638765) rotate(0 69.85712105887524 27.66342724048468)"><path d="M115.25 50.16 C123.22 51.85, 131.19 53.53, 139.71 55.33 M115.25 50.16 C120.9 51.35, 126.55 52.55, 139.71 55.33" stroke="#1e1e1e" stroke-width="1" fill="none"></path></g><g transform="translate(727.4445237475757 109.59085716638765) rotate(0 69.85712105887524 27.66342724048468)"><path d="M124.3 35.65 C129.32 42.06, 134.34 48.47, 139.71 55.33 M124.3 35.65 C127.86 40.19, 131.42 44.74, 139.71 55.33" stroke="#1e1e1e" stroke-width="1" fill="none"></path></g></g><mask></mask><g stroke-linecap="round" transform="translate(11.857142857144936 10) rotate(0 48.650785173688746 29.444452921549328)"><path d="M14.72 0 C39.06 0, 63.4 0, 82.58 0 C92.39 0, 97.3 4.91, 97.3 14.72 C97.3 25.56, 97.3 36.4, 97.3 44.17 C97.3 53.98, 92.39 58.89, 82.58 58.89 C67.67 58.89, 52.76 58.89, 14.72 58.89 C4.91 58.89, 0 53.98, 0 44.17 C0 33.76, 0 23.35, 0 14.72 C0 4.91, 4.91 0, 14.72 0" stroke="none" stroke-width="0" fill="#ffffff"></path><path d="M14.72 0 C37.42 0, 60.12 0, 82.58 0 M14.72 0 C39.84 0, 64.96 0, 82.58 0 M82.58 0 C92.39 0, 97.3 4.91, 97.3 14.72 M82.58 0 C92.39 0, 97.3 4.91, 97.3 14.72 M97.3 14.72 C97.3 25.1, 97.3 35.48, 97.3 44.17 M97.3 14.72 C97.3 23.33, 97.3 31.94, 97.3 44.17 M97.3 44.17 C97.3 53.98, 92.39 58.89, 82.58 58.89 M97.3 44.17 C97.3 53.98, 92.39 58.89, 82.58 58.89 M82.58 58.89 C67.32 58.89, 52.05 58.89, 14.72 58.89 M82.58 58.89 C59.07 58.89, 35.55 58.89, 14.72 58.89 M14.72 58.89 C4.91 58.89, 0 53.98, 0 44.17 M14.72 58.89 C4.91 58.89, 0 53.98, 0 44.17 M0 44.17 C0 36.99, 0 29.82, 0 14.72 M0 44.17 C0 32.75, 0 21.34, 0 14.72 M0 14.72 C0 4.91, 4.91 0, 14.72 0 M0 14.72 C0 4.91, 4.91 0, 14.72 0" stroke="#1e1e1e" stroke-width="2" fill="none"></path></g><g transform="translate(31.606560843333682 27.944452921549328) rotate(0 28.9013671875 11.5)"><text x="28.9013671875" y="18.400390625" font-family="Helvetica, Segoe UI Emoji" font-size="20px" fill="#1e1e1e" text-anchor="middle" style="white-space: pre;" direction="ltr" dominant-baseline="alphabetic">C/C++</text></g><g stroke-linecap="round" transform="translate(10 103.33330426897373) rotate(0 51.42857142857156 27.142878941127265)"><path d="M13.57 0 C38.09 0, 62.61 0, 89.29 0 C98.33 0, 102.86 4.52, 102.86 13.57 C102.86 22.17, 102.86 30.77, 102.86 40.71 C102.86 49.76, 98.33 54.29, 89.29 54.29 C64.47 54.29, 39.66 54.29, 13.57 54.29 C4.52 54.29, 0 49.76, 0 40.71 C0 35.23, 0 29.74, 0 13.57 C0 4.52, 4.52 0, 13.57 0" stroke="none" stroke-width="0" fill="#ffffff"></path><path d="M13.57 0 C32.19 0, 50.81 0, 89.29 0 M13.57 0 C38.37 0, 63.16 0, 89.29 0 M89.29 0 C98.33 0, 102.86 4.52, 102.86 13.57 M89.29 0 C98.33 0, 102.86 4.52, 102.86 13.57 M102.86 13.57 C102.86 21.46, 102.86 29.34, 102.86 40.71 M102.86 13.57 C102.86 23.18, 102.86 32.78, 102.86 40.71 M102.86 40.71 C102.86 49.76, 98.33 54.29, 89.29 54.29 M102.86 40.71 C102.86 49.76, 98.33 54.29, 89.29 54.29 M89.29 54.29 C70.24 54.29, 51.2 54.29, 13.57 54.29 M89.29 54.29 C59.26 54.29, 29.23 54.29, 13.57 54.29 M13.57 54.29 C4.52 54.29, 0 49.76, 0 40.71 M13.57 54.29 C4.52 54.29, 0 49.76, 0 40.71 M0 40.71 C0 31.65, 0 22.58, 0 13.57 M0 40.71 C0 35.15, 0 29.59, 0 13.57 M0 13.57 C0 4.52, 4.52 0, 13.57 0 M0 13.57 C0 4.52, 4.52 0, 13.57 0" stroke="#1e1e1e" stroke-width="2" fill="none"></path></g><g transform="translate(40.86704799107156 118.97618321010123) rotate(0 20.5615234375 11.5)"><text x="20.5615234375" y="18.400390625" font-family="Helvetica, Segoe UI Emoji" font-size="20px" fill="#1e1e1e" text-anchor="middle" style="white-space: pre;" direction="ltr" dominant-baseline="alphabetic">Rust</text></g><g stroke-linecap="round" transform="translate(10.04767717634968 192.04756818498936) rotate(0 51.98411850702223 27.69845145089289)"><path d="M13.85 0 C36.02 0, 58.2 0, 90.12 0 C99.35 0, 103.97 4.62, 103.97 13.85 C103.97 21.84, 103.97 29.84, 103.97 41.55 C103.97 50.78, 99.35 55.4, 90.12 55.4 C71.74 55.4, 53.36 55.4, 13.85 55.4 C4.62 55.4, 0 50.78, 0 41.55 C0 34.55, 0 27.56, 0 13.85 C0 4.62, 4.62 0, 13.85 0" stroke="none" stroke-width="0" fill="#ffffff"></path><path d="M13.85 0 C35.98 0, 58.12 0, 90.12 0 M13.85 0 C31.66 0, 49.47 0, 90.12 0 M90.12 0 C99.35 0, 103.97 4.62, 103.97 13.85 M90.12 0 C99.35 0, 103.97 4.62, 103.97 13.85 M103.97 13.85 C103.97 23.77, 103.97 33.7, 103.97 41.55 M103.97 13.85 C103.97 22.84, 103.97 31.83, 103.97 41.55 M103.97 41.55 C103.97 50.78, 99.35 55.4, 90.12 55.4 M103.97 41.55 C103.97 50.78, 99.35 55.4, 90.12 55.4 M90.12 55.4 C62.84 55.4, 35.55 55.4, 13.85 55.4 M90.12 55.4 C60.64 55.4, 31.15 55.4, 13.85 55.4 M13.85 55.4 C4.62 55.4, 0 50.78, 0 41.55 M13.85 55.4 C4.62 55.4, 0 50.78, 0 41.55 M0 41.55 C0 31.22, 0 20.89, 0 13.85 M0 41.55 C0 34.7, 0 27.85, 0 13.85 M0 13.85 C0 4.62, 4.62 0, 13.85 0 M0 13.85 C0 4.62, 4.62 0, 13.85 0" stroke="#1e1e1e" stroke-width="2" fill="none"></path></g><g transform="translate(30.898983183371456 208.24601963588248) rotate(0 31.1328125 11.5)"><text x="31.1328125" y="18.400390625" font-family="Helvetica, Segoe UI Emoji" font-size="20px" fill="#1e1e1e" text-anchor="middle" style="white-space: pre;" direction="ltr" dominant-baseline="alphabetic">Python</text></g><g stroke-linecap="round"><g transform="translate(110.45577693278756 43.98505118405501) rotate(0 42.65312559861832 36.9385983443683)"><path d="M0 0 C14.22 12.31, 71.09 61.56, 85.31 73.88 M0 0 C14.22 12.31, 71.09 61.56, 85.31 73.88" stroke="#1e1e1e" stroke-width="1" fill="none"></path></g><g transform="translate(110.45577693278756 43.98505118405501) rotate(0 42.65312559861832 36.9385983443683)"><path d="M61.95 64.96 C67.85 67.21, 73.75 69.47, 85.31 73.88 M61.95 64.96 C67.78 67.19, 73.61 69.41, 85.31 73.88" stroke="#1e1e1e" stroke-width="1" fill="none"></path></g><g transform="translate(110.45577693278756 43.98505118405501) rotate(0 42.65312559861832 36.9385983443683)"><path d="M73.15 52.03 C76.22 57.55, 79.29 63.07, 85.31 73.88 M73.15 52.03 C76.18 57.49, 79.22 62.94, 85.31 73.88" stroke="#1e1e1e" stroke-width="1" fill="none"></path></g></g><mask></mask><g stroke-linecap="round"><g transform="translate(111.86506943443237 132.30055481320596) rotate(0 41.94847934779682 -6.244317899197313)"><path d="M0 0 C13.98 -2.08, 69.91 -10.41, 83.9 -12.49 M0 0 C13.98 -2.08, 69.91 -10.41, 83.9 -12.49" stroke="#1e1e1e" stroke-width="1" fill="none"></path></g><g transform="translate(111.86506943443237 132.30055481320596) rotate(0 41.94847934779682 -6.244317899197313)"><path d="M61.92 -0.57 C69.96 -4.93, 77.99 -9.29, 83.9 -12.49 M61.92 -0.57 C67.15 -3.41, 72.39 -6.25, 83.9 -12.49" stroke="#1e1e1e" stroke-width="1" fill="none"></path></g><g transform="translate(111.86506943443237 132.30055481320596) rotate(0 41.94847934779682 -6.244317899197313)"><path d="M59.4 -17.49 C68.36 -15.66, 77.32 -13.83, 83.9 -12.49 M59.4 -17.49 C65.24 -16.3, 71.07 -15.11, 83.9 -12.49" stroke="#1e1e1e" stroke-width="1" fill="none"></path></g></g><mask></mask><g stroke-linecap="round"><g transform="translate(115.01591419039505 217.50585332175706) rotate(0 40.09057903688608 -46.51927124761005)"><path d="M0 0 C13.36 -15.51, 66.82 -77.53, 80.18 -93.04 M0 0 C13.36 -15.51, 66.82 -77.53, 80.18 -93.04" stroke="#1e1e1e" stroke-width="1" fill="none"></path></g><g transform="translate(115.01591419039505 217.50585332175706) rotate(0 40.09057903688608 -46.51927124761005)"><path d="M71.32 -69.66 C73.51 -75.44, 75.7 -81.23, 80.18 -93.04 M71.32 -69.66 C73.65 -75.81, 75.98 -81.95, 80.18 -93.04" stroke="#1e1e1e" stroke-width="1" fill="none"></path></g><g transform="translate(115.01591419039505 217.50585332175706) rotate(0 40.09057903688608 -46.51927124761005)"><path d="M58.37 -80.82 C63.76 -83.85, 69.16 -86.87, 80.18 -93.04 M58.37 -80.82 C64.1 -84.03, 69.83 -87.24, 80.18 -93.04" stroke="#1e1e1e" stroke-width="1" fill="none"></path></g></g><mask></mask><g transform="translate(784.3372501191643 94.0079171316961) rotate(0 15.0048828125 11.5)"><text x="0" y="18.400390625" font-family="Helvetica, Segoe UI Emoji" font-size="20px" fill="#1e1e1e" text-anchor="start" style="white-space: pre;" direction="ltr" dominant-baseline="alphabetic">link</text></g><g transform="translate(785.782842726936 188.2936750139511) rotate(0 15.0048828125 11.5)"><text x="0" y="18.400390625" font-family="Helvetica, Segoe UI Emoji" font-size="20px" fill="#1e1e1e" text-anchor="start" style="white-space: pre;" direction="ltr" dominant-baseline="alphabetic">link</text></g><g stroke-linecap="round" transform="translate(382.73000735329515 84.96812438964571) rotate(0 70.79366048177235 30)"><path d="M15 0 C51.57 0, 88.14 0, 126.59 0 C136.59 0, 141.59 5, 141.59 15 C141.59 21.07, 141.59 27.13, 141.59 45 C141.59 55, 136.59 60, 126.59 60 C102.65 60, 78.71 60, 15 60 C5 60, 0 55, 0 45 C0 35.78, 0 26.56, 0 15 C0 5, 5 0, 15 0" stroke="none" stroke-width="0" fill="#a5d8ff"></path><path d="M15 0 C47.42 0, 79.84 0, 126.59 0 M15 0 C54.49 0, 93.98 0, 126.59 0 M126.59 0 C136.59 0, 141.59 5, 141.59 15 M126.59 0 C136.59 0, 141.59 5, 141.59 15 M141.59 15 C141.59 22.55, 141.59 30.09, 141.59 45 M141.59 15 C141.59 26.9, 141.59 38.8, 141.59 45 M141.59 45 C141.59 55, 136.59 60, 126.59 60 M141.59 45 C141.59 55, 136.59 60, 126.59 60 M126.59 60 C89.31 60, 52.04 60, 15 60 M126.59 60 C103.72 60, 80.85 60, 15 60 M15 60 C5 60, 0 55, 0 45 M15 60 C5 60, 0 55, 0 45 M0 45 C0 35.29, 0 25.57, 0 15 M0 45 C0 34.99, 0 24.99, 0 15 M0 15 C0 5, 5 0, 15 0 M0 15 C0 5, 5 0, 15 0" stroke="#1e1e1e" stroke-width="2" fill="none"></path></g><g transform="translate(415.3644881475684 103.46812438964571) rotate(0 38.1591796875 11.5)"><text x="38.1591796875" y="18.400390625" font-family="Helvetica, Segoe UI Emoji" font-size="20px" fill="#1e1e1e" text-anchor="middle" style="white-space: pre;" direction="ltr" dominant-baseline="alphabetic">LLVM IR</text></g><g stroke-linecap="round"><g transform="translate(521.673113519626 114.26758525438026) rotate(0 32.01208564786248 -1.0746632818245416)"><path d="M1.09 0.36 C11.7 -0.03, 52.98 -1.74, 63.56 -2.01 M0.21 -0.49 C10.62 -0.7, 51.72 0.04, 62.37 -0.4" stroke="#1e1e1e" stroke-width="1" fill="none"></path></g><g transform="translate(521.673113519626 114.26758525438026) rotate(0 32.01208564786248 -1.0746632818245416)"><path d="M38.95 8.35 C46.41 4.79, 52.92 3.91, 62.37 -0.4 M38.95 8.35 C47.46 4.55, 56.1 1.13, 62.37 -0.4" stroke="#1e1e1e" stroke-width="1" fill="none"></path></g><g transform="translate(521.673113519626 114.26758525438026) rotate(0 32.01208564786248 -1.0746632818245416)"><path d="M38.8 -8.75 C46.36 -7.29, 52.91 -3.14, 62.37 -0.4 M38.8 -8.75 C47.51 -6.16, 56.21 -3.19, 62.37 -0.4" stroke="#1e1e1e" stroke-width="1" fill="none"></path></g></g><mask></mask><g stroke-linecap="round"><g transform="translate(301.7303160067022 117.61063473723925) rotate(0 38.59874940736336 -1.0431664147386073)"><path d="M0.27 -0.38 C13.41 -0.81, 64.93 -1.72, 77.95 -2.01 M-1.05 -1.62 C12.08 -1.9, 64.17 -0.57, 77.39 -0.44" stroke="#1e1e1e" stroke-width="1" fill="none"></path></g><g transform="translate(301.7303160067022 117.61063473723925) rotate(0 38.59874940736336 -1.0431664147386073)"><path d="M53.75 7.69 C58.34 7.07, 64.36 5.99, 77.39 -0.44 M53.75 7.69 C60.36 6.06, 68.64 2.67, 77.39 -0.44" stroke="#1e1e1e" stroke-width="1" fill="none"></path></g><g transform="translate(301.7303160067022 117.61063473723925) rotate(0 38.59874940736336 -1.0431664147386073)"><path d="M54.06 -9.41 C58.66 -6.22, 64.61 -3.49, 77.39 -0.44 M54.06 -9.41 C60.56 -5.96, 68.75 -4.3, 77.39 -0.44" stroke="#1e1e1e" stroke-width="1" fill="none"></path></g></g><mask></mask><g transform="translate(295.9396874406175 67.31250101724936) rotate(0 46.6875 9.200000000000045)"><text x="46.6875" y="14.720312499999999" font-family="Helvetica, Segoe UI Emoji" font-size="16px" fill="#1e1e1e" text-anchor="middle" style="white-space: pre;" direction="ltr" dominant-baseline="alphabetic">wasm2native</text></g><g transform="translate(508.6138777959968 64.76812438964498) rotate(0 46.6875 9.200000000000045)"><text x="46.6875" y="14.720312499999999" font-family="Helvetica, Segoe UI Emoji" font-size="16px" fill="#1e1e1e" text-anchor="middle" style="white-space: pre;" direction="ltr" dominant-baseline="alphabetic">wasm2native</text></g><g transform="translate(136.620805286233 49.30150858561137) rotate(0 19.125 9.200000000000045)"><text x="19.125" y="14.720312499999999" font-family="Helvetica, Segoe UI Emoji" font-size="16px" fill="#1e1e1e" text-anchor="middle" style="white-space: pre;" direction="ltr" dominant-baseline="alphabetic">clang</text></g><g transform="translate(122.8543461390982 105.65703023274591) rotate(0 17.3359375 9.200000000000045)"><text x="17.3359375" y="14.720312499999999" font-family="Helvetica, Segoe UI Emoji" font-size="16px" fill="#1e1e1e" text-anchor="middle" style="white-space: pre;" direction="ltr" dominant-baseline="alphabetic">rustc</text></g><g transform="translate(138.7141382126665 194.54598693847538) rotate(0 66.25390625 9.200000000000045)"><text x="66.25390625" y="14.720312499999999" font-family="Helvetica, Segoe UI Emoji" font-size="16px" fill="#1e1e1e" text-anchor="middle" style="white-space: pre;" direction="ltr" dominant-baseline="alphabetic">cpython, py2wasm</text></g></svg>